STARTFONT 2.1
FONT -FontForge-Nasalization-Book-R-Normal--40-380-75-75-P-255-ISO10646-1
SIZE 38 75 75
FONTBOUNDINGBOX 43 38 -2 -8
COMMENT "Generated by fontforge, http://fontforge.sourceforge.net"
COMMENT "(c) 1999-2024 Typodermic Fonts Inc."
STARTPROPERTIES 39
FOUNDRY "FontForge"
FAMILY_NAME "Nasalization"
WEIGHT_NAME "Book"
SLANT "R"
SETWIDTH_NAME "Normal"
ADD_STYLE_NAME ""
PIXEL_SIZE 40
POINT_SIZE 380
RESOLUTION_X 75
RESOLUTION_Y 75
SPACING "P"
AVERAGE_WIDTH 255
CHARSET_REGISTRY "ISO10646"
CHARSET_ENCODING "1"
FONTNAME_REGISTRY ""
CHARSET_COLLECTIONS "ISO10646-1"
FONT_NAME "Nasalization-Regular"
FACE_NAME "Nasalization Regular"
COPYRIGHT "(c) 1999-2024 Typodermic Fonts Inc."
FONT_VERSION "5.100"
FONT_ASCENT 32
FONT_DESCENT 8
UNDERLINE_POSITION -3
UNDERLINE_THICKNESS 1
X_HEIGHT 20
CAP_HEIGHT 26
RAW_ASCENT 800
RAW_DESCENT 200
NORM_SPACE 11
RELATIVE_WEIGHT 40
RELATIVE_SETWIDTH 50
SUPERSCRIPT_X 0
SUPERSCRIPT_Y 12
SUPERSCRIPT_SIZE 12
SUBSCRIPT_X 0
SUBSCRIPT_Y 0
SUBSCRIPT_SIZE 12
AVG_LOWERCASE_WIDTH 244
AVG_UPPERCASE_WIDTH 292
ENDPROPERTIES
CHARS 71
STARTCHAR space
ENCODING 32
SWIDTH 267 0
DWIDTH 11 0
BBX 1 1 0 0
BITMAP
00
ENDCHAR
STARTCHAR percent
ENCODING 37
SWIDTH 845 0
DWIDTH 34 0
BBX 32 27 1 0
BITMAP
0FC000F0
3FF000E0
7FF001C0
70380380
E0380700
E0180700
E01C0E00
E01C1C00
E01C3800
E0187800
60387000
7078E000
7FF1C3F0
3FE38FFC
0FC79FFC
00071C0E
000E180E
001C3806
003C3807
00383807
00703807
00E03807
01C0180E
03C01C0E
03801FFC
07000FFC
0E0007F0
ENDCHAR
STARTCHAR comma
ENCODING 44
SWIDTH 257 0
DWIDTH 10 0
BBX 7 12 1 -7
BITMAP
3E
3E
3E
3E
3E
3E
3E
3E
FC
FC
F8
E0
ENDCHAR
STARTCHAR hyphen
ENCODING 45
SWIDTH 415 0
DWIDTH 17 0
BBX 14 4 1 11
BITMAP
FFFC
FFFC
FFFC
FFFC
ENDCHAR
STARTCHAR period
ENCODING 46
SWIDTH 242 0
DWIDTH 10 0
BBX 4 5 3 0
BITMAP
F0
F0
F0
F0
F0
ENDCHAR
STARTCHAR zero
ENCODING 48
SWIDTH 748 0
DWIDTH 30 0
BBX 25 27 2 0
BITMAP
01FFC000
07FFF000
0FFFF800
1FFFFC00
3FC3FE00
3F007E00
7E003F00
7C001F00
7C001F00
78000F00
F8000F80
F8000F80
F8000F80
F8000F80
F8000F80
F8000F80
F8000F80
78000F00
7C001F00
7C001F00
7E003F00
3F007E00
3FE1FE00
1FFFFC00
0FFFF800
07FFF000
01FFC000
ENDCHAR
STARTCHAR one
ENCODING 49
SWIDTH 337 0
DWIDTH 13 0
BBX 9 27 1 0
BITMAP
FC00
FF00
FF80
FF80
FF80
0F80
0780
0780
0780
0780
0780
0780
0780
0780
0780
0780
0780
0780
0780
0780
0780
0780
0780
0780
0780
0780
0780
ENDCHAR
STARTCHAR two
ENCODING 50
SWIDTH 734 0
DWIDTH 29 0
BBX 24 27 3 0
BITMAP
7FFFF0
7FFFF8
7FFFFE
7FFFFE
7FFFFF
00001F
00001F
00001F
00001F
00001F
0000FF
000FFE
00FFFE
0FFFF8
3FFFE0
7FFE00
FFE000
FC0000
F80000
F00000
F00000
F00000
FFFFFE
FFFFFE
FFFFFE
FFFFFE
FFFFFE
ENDCHAR
STARTCHAR three
ENCODING 51
SWIDTH 681 0
DWIDTH 27 0
BBX 23 27 2 0
BITMAP
FFFFC0
FFFFF0
FFFFF8
FFFFFC
FFFFFC
00007E
00003E
00003E
00003E
00003E
00007C
03FFFC
03FFF8
03FFE0
03FFF8
03FFFC
00007C
00003E
00003E
00003E
00003E
00007E
FFFFFE
FFFFFC
FFFFF8
FFFFF0
FFFFC0
ENDCHAR
STARTCHAR four
ENCODING 52
SWIDTH 704 0
DWIDTH 28 0
BBX 24 27 1 0
BITMAP
0007FC
001FFE
003FFF
007FFF
007FFF
00FC1F
01F81F
03F01F
07E01F
0FC01F
0FC01F
1F801F
3F001F
7E001F
7C001F
FC001F
FC001F
FFFFFF
7FFFFF
7FFFFF
3FFFFF
00001F
00001F
00001F
00001F
00001F
00001F
ENDCHAR
STARTCHAR five
ENCODING 53
SWIDTH 685 0
DWIDTH 27 0
BBX 22 27 3 0
BITMAP
7FFFF8
FFFFF8
FFFFF8
FFFFF8
FFFFF8
F80000
F80000
F80000
F80000
F80000
F80000
FFFFE0
FFFFF0
FFFFF8
7FFFFC
0000FC
00007C
00003C
00003C
00003C
00007C
00007C
FFFFFC
FFFFF8
FFFFF8
FFFFE0
FFFF80
ENDCHAR
STARTCHAR six
ENCODING 54
SWIDTH 713 0
DWIDTH 29 0
BBX 24 27 2 0
BITMAP
00FFFE
03FFFE
0FFFFE
1FFFFE
1FFFFE
3F8000
7E0000
7C0000
7C0000
780000
F80000
FFFFF0
FFFFFC
FFFFFE
FFFFFF
F8003F
F8001F
78000F
7C000F
7C000F
7E001F
3F003F
3FFFFF
1FFFFE
0FFFFC
07FFF8
00FFE0
ENDCHAR
STARTCHAR seven
ENCODING 55
SWIDTH 651 0
DWIDTH 26 0
BBX 24 27 1 0
BITMAP
FFFFF0
FFFFFC
FFFFFE
FFFFFE
FFFFFE
00003F
00003F
00003E
00003E
00007C
0000FC
0001F8
0001F0
0003F0
0007E0
000FC0
000F80
001F80
003F00
007E00
007E00
00FC00
01F800
03F000
03F000
07E000
0FC000
ENDCHAR
STARTCHAR eight
ENCODING 56
SWIDTH 726 0
DWIDTH 29 0
BBX 25 27 2 0
BITMAP
07FFF000
1FFFFC00
3FFFFE00
7FFFFF00
7FFFFF00
FC001F80
F8000F80
F8000F80
F8000F80
78000F00
7C001F00
7FFFFE00
3FFFFE00
0FFFF800
3FFFFE00
7F80FF00
7C001F00
F8000F80
F8000F80
F8000F80
F8000F80
FC001F80
7FFFFF00
7FFFFF00
3FFFFE00
1FFFFC00
07FFF000
ENDCHAR
STARTCHAR nine
ENCODING 57
SWIDTH 713 0
DWIDTH 29 0
BBX 24 27 2 0
BITMAP
07FF80
1FFFE0
3FFFF8
7FFFFC
7FFFFC
FC00FE
F8003E
F8003F
F8001F
F8001F
F8001F
FC001F
7FFFFF
7FFFFF
3FFFFF
07FFFF
00001F
00001F
00001F
00003E
00007E
0000FE
1FFFFC
1FFFF8
1FFFF0
1FFFE0
1FFF00
ENDCHAR
STARTCHAR colon
ENCODING 58
SWIDTH 272 0
DWIDTH 11 0
BBX 5 21 3 0
BITMAP
F8
F8
F8
F8
F8
F8
00
00
00
00
00
00
00
00
00
00
F8
F8
F8
F8
F8
ENDCHAR
STARTCHAR equal
ENCODING 61
SWIDTH 619 0
DWIDTH 25 0
BBX 21 13 2 7
BITMAP
FFFFF8
FFFFF8
FFFFF8
000000
000000
000000
000000
000000
000000
000000
FFFFF8
FFFFF8
FFFFF8
ENDCHAR
STARTCHAR A
ENCODING 65
SWIDTH 784 0
DWIDTH 31 0
BBX 29 27 1 0
BITMAP
001FE000
003FF000
007FF000
007FF800
007DF800
00F8F800
00F87C00
01F87C00
01F07E00
01F03E00
03E03E00
03E01F00
07E01F00
07C01F80
07C00F80
0F800F80
0F800FC0
0F8007C0
1F0007C0
1F0003E0
3F0003E0
3E0003F0
3E0001F0
7C0001F0
7C0001F8
FC0000F8
F80000F8
ENDCHAR
STARTCHAR B
ENCODING 66
SWIDTH 719 0
DWIDTH 29 0
BBX 24 27 3 0
BITMAP
7FFFC0
FFFFF8
FFFFFC
FFFFFC
FFFFFE
F8003E
F8003E
F8001E
F8001E
F8003E
F8003E
FFFFFC
FFFFF8
FFFFF0
FFFFF8
F800FC
F8003E
F8001E
F8001F
F8001F
F8003F
F8003E
FFFFFE
FFFFFE
FFFFFC
FFFFF8
7FFFE0
ENDCHAR
STARTCHAR C
ENCODING 67
SWIDTH 682 0
DWIDTH 27 0
BBX 23 27 2 0
BITMAP
00FFFE
03FFFE
0FFFFE
1FFFFE
1FFFFE
3F0000
7E0000
7C0000
7C0000
780000
F80000
F80000
F80000
F80000
F80000
F80000
F80000
780000
7C0000
7C0000
7E0000
3F8000
3FFFFE
1FFFFE
0FFFFE
03FFFE
00FFFE
ENDCHAR
STARTCHAR D
ENCODING 68
SWIDTH 737 0
DWIDTH 29 0
BBX 24 27 3 0
BITMAP
7FFF00
FFFFE0
FFFFF0
FFFFF8
FFFFFC
F800FE
F8007E
F8003E
F8001F
F8001F
F8001F
F8001F
F8001F
F8001F
F8001F
F8001F
F8001F
F8001F
F8001F
F8003E
F8007E
F800FE
FFFFFC
FFFFF8
FFFFF0
FFFFE0
7FFF00
ENDCHAR
STARTCHAR E
ENCODING 69
SWIDTH 693 0
DWIDTH 28 0
BBX 23 27 2 0
BITMAP
07FFFE
1FFFFE
3FFFFE
7FFFFE
7FFFFE
FC0000
FC0000
F80000
F80000
780000
7C0000
7FFFFE
3FFFFE
0FFFFE
3FFFFE
7FFFFE
7C0000
F80000
F80000
F80000
F80000
FC0000
7FFFFE
7FFFFE
3FFFFE
1FFFFE
07FFFE
ENDCHAR
STARTCHAR F
ENCODING 70
SWIDTH 663 0
DWIDTH 27 0
BBX 21 27 3 0
BITMAP
03FFF8
0FFFF8
3FFFF8
3FFFF8
7FFFF8
7E0000
FC0000
F80000
F80000
F80000
F80000
F80000
FFFFF8
FFFFF8
FFFFF8
FFFFF8
F80000
F80000
F80000
F80000
F80000
F80000
F80000
F80000
F80000
F80000
F80000
ENDCHAR
STARTCHAR G
ENCODING 71
SWIDTH 729 0
DWIDTH 29 0
BBX 25 27 2 0
BITMAP
00FFFF00
03FFFF00
0FFFFF00
1FFFFF00
1FFFFF00
3F000000
7E000000
7C000000
7C000000
78000000
F8000000
F81FF800
F81FFE00
F81FFF00
F81FFF00
F8001F80
F8000F80
78000780
7C000780
7C000780
7E000F80
3F801F80
3FFFFF00
1FFFFF00
0FFFFE00
03FFFC00
00FFF000
ENDCHAR
STARTCHAR H
ENCODING 72
SWIDTH 745 0
DWIDTH 30 0
BBX 24 27 3 0
BITMAP
F8001F
F8001F
F8001F
F8001F
F8001F
F8001F
F8001F
F8001F
F8001F
F8001F
F8001F
FFFFFF
FFFFFF
FFFFFF
FFFFFF
FFFFFF
F8001F
F8001F
F8001F
F8001F
F8001F
F8001F
F8001F
F8001F
F8001F
F8001F
F8001F
ENDCHAR
STARTCHAR I
ENCODING 73
SWIDTH 281 0
DWIDTH 11 0
BBX 5 27 3 0
BITMAP
F8
F8
F8
F8
F8
F8
F8
F8
F8
F8
F8
F8
F8
F8
F8
F8
F8
F8
F8
F8
F8
F8
F8
F8
F8
F8
F8
ENDCHAR
STARTCHAR J
ENCODING 74
SWIDTH 583 0
DWIDTH 23 0
BBX 19 27 1 0
BITMAP
0001E0
0001E0
0001E0
0001E0
0001E0
0001E0
0001E0
0001E0
0001E0
0001E0
0001E0
0001E0
0001E0
0001E0
0001E0
0001E0
0001E0
0001E0
0003E0
0003E0
0003E0
0007E0
FFFFC0
FFFFC0
FFFF80
FFFF00
FFF800
ENDCHAR
STARTCHAR K
ENCODING 75
SWIDTH 708 0
DWIDTH 28 0
BBX 24 27 3 0
BITMAP
F8003E
F8003E
F8007C
F8007C
F800F8
F800F8
F801F0
F801F0
F803E0
F803E0
F807C0
FFFF80
FFFF00
FFFE00
FFFF80
FFFFC0
F807E0
F803F0
F801F0
F801F8
F800F8
F800FC
F8007C
F8007E
F8003E
F8003F
F8001F
ENDCHAR
STARTCHAR L
ENCODING 76
SWIDTH 622 0
DWIDTH 25 0
BBX 21 27 3 0
BITMAP
F80000
F80000
F80000
F80000
F80000
F80000
F80000
F80000
F80000
F80000
F80000
F80000
F80000
F80000
F80000
F80000
F80000
F80000
F80000
F80000
FC0000
7E0000
7FFFF8
3FFFF8
3FFFF8
0FFFF8
03FFF8
ENDCHAR
STARTCHAR M
ENCODING 77
SWIDTH 1102 0
DWIDTH 44 0
BBX 38 27 3 0
BITMAP
1FE0001FE0
3FF0003FF8
7FF8003FF8
FFF8007FFC
FCF8007C7C
F87C00787C
F87C00F87C
F87C00F87C
F87C00F87C
F83E00F07C
F83E01F07C
F83E01F07C
F83E01F07C
F81F01E07C
F81F03E07C
F81F03E07C
F81F03E07C
F80F03E07C
F80F83C07C
F80F87C07C
F80F87C07C
F80F87C07C
F807CF807C
F807FF807C
F807FF807C
F803FF007C
F801FE007C
ENDCHAR
STARTCHAR N
ENCODING 78
SWIDTH 879 0
DWIDTH 35 0
BBX 29 27 3 0
BITMAP
1FC000F8
7FE000F8
7FF000F8
FFF800F8
F8F800F8
F8F800F8
F87C00F8
F87C00F8
F83E00F8
F83E00F8
F81F00F8
F81F00F8
F80F80F8
F80F80F8
F807C0F8
F807C0F8
F807C0F8
F803E0F8
F803E0F8
F801F0F8
F801F0F8
F800F8F8
F800F8F8
F8007FF8
F8007FF0
F8003FF0
F8001FE0
ENDCHAR
STARTCHAR O
ENCODING 79
SWIDTH 816 0
DWIDTH 33 0
BBX 28 27 2 0
BITMAP
00FFF000
03FFFE00
0FFFFF00
1FFFFF80
1FFFFFC0
3F000FE0
7E0007E0
7C0003F0
7C0001F0
780001F0
F80001F0
F80001F0
F80000F0
F80000F0
F80000F0
F80001F0
F80001F0
780001F0
7C0001F0
7C0003F0
7E0003E0
3F000FE0
3FFFFFC0
1FFFFF80
0FFFFF00
03FFFE00
00FFF000
ENDCHAR
STARTCHAR P
ENCODING 80
SWIDTH 679 0
DWIDTH 27 0
BBX 23 27 3 0
BITMAP
FFFFC0
FFFFF0
FFFFF8
FFFFF8
FFFFFC
00007C
00003E
00003E
00003E
00003E
00007C
0000FC
3FFFFC
7FFFF8
FFFFF0
FFFFE0
FFFE00
F80000
F80000
F80000
F80000
F80000
F80000
F80000
F80000
F80000
F80000
ENDCHAR
STARTCHAR Q
ENCODING 81
SWIDTH 816 0
DWIDTH 33 0
BBX 28 31 2 -4
BITMAP
00FFF000
03FFFE00
0FFFFF00
1FFFFF80
1FFFFFC0
3F000FE0
7E0007E0
7C0003F0
7C0001F0
780001F0
F80001F0
F80001F0
F80000F0
F80000F0
F80000F0
F80001F0
F80001F0
7807C1F0
7C03E1F0
7C03E3F0
7E01F3E0
3F81FFE0
3FFFFFC0
1FFFFF80
0FFFFF00
03FFFE00
00FFFC00
00003E00
00001E00
00001F00
00000F00
ENDCHAR
STARTCHAR R
ENCODING 82
SWIDTH 714 0
DWIDTH 29 0
BBX 24 27 3 0
BITMAP
FFFFC0
FFFFF0
FFFFFC
FFFFFC
FFFFFE
00003E
00003E
00001F
00001E
00001E
00003E
00007E
3FFFFC
7FFFFC
FFFFF8
FFFFF0
FFFFC0
F807E0
F803E0
F803F0
F801F0
F800F8
F800F8
F8007C
F8007E
F8003E
F8001F
ENDCHAR
STARTCHAR S
ENCODING 83
SWIDTH 703 0
DWIDTH 28 0
BBX 24 27 2 0
BITMAP
07FFFC
1FFFFC
3FFFFC
7FFFFC
7FFFFC
FC0000
F80000
F80000
F80000
F80000
FC0000
7FFFC0
7FFFF8
3FFFFC
1FFFFE
00FFFE
00003F
00001F
00001F
00001F
00001F
00003F
7FFFFF
7FFFFE
7FFFFC
7FFFF8
7FFFE0
ENDCHAR
STARTCHAR T
ENCODING 84
SWIDTH 571 0
DWIDTH 23 0
BBX 21 27 1 0
BITMAP
FFFFF8
FFFFF8
FFFFF8
FFFFF8
FFFFF8
00F800
00F800
00F800
00F800
00F800
00F800
00F800
00F800
00F800
00F800
00F800
00F800
00F800
00F800
00F800
00F800
00F800
00F800
00F800
00F800
00F800
00F800
ENDCHAR
STARTCHAR U
ENCODING 85
SWIDTH 732 0
DWIDTH 29 0
BBX 23 27 3 0
BITMAP
F8001E
F8001E
F8001E
F8001E
F8001E
F8001E
F8001E
F8001E
F8001E
F8001E
F8001E
F8001E
F8001E
F8001E
F8001E
F8001E
F8001E
F8001E
F8001E
F8003E
F8003E
FC007E
7FFFFE
7FFFFC
3FFFF8
1FFFF0
07FFC0
ENDCHAR
STARTCHAR V
ENCODING 86
SWIDTH 784 0
DWIDTH 31 0
BBX 29 27 1 0
BITMAP
F80000F8
FC0000F8
7C0001F8
7C0001F0
7E0001F0
3E0003E0
3E0003E0
1F0007E0
1F0007C0
1F8007C0
0F800F80
0F800F80
0FC01F80
07C01F00
07C01F00
03E03F00
03E03E00
03F07E00
01F07C00
01F07C00
01F8FC00
00F8F800
00FDF800
007FF000
007FF000
003FE000
001FC000
ENDCHAR
STARTCHAR W
ENCODING 87
SWIDTH 1046 0
DWIDTH 42 0
BBX 40 27 1 0
BITMAP
F800FF001F
F801FF803E
7801FF803E
7C03FFC03E
7C03E7C03E
7C03C3C03E
7C07C3C03E
7C07C3C03E
7C07C3E03E
7C07C3E03C
7C0783E07C
3C0F81E07C
3C0F81E07C
3E0F81F07C
3E0F81F07C
3E0F01F07C
3E1F00F07C
3E1F00F07C
3E1F00F078
3E1F00F878
3E1E00F8F8
1E1E00F8F8
1F3E007CF8
1FFE007FF8
1FFC007FF0
0FFC003FF0
07F8001FC0
ENDCHAR
STARTCHAR X
ENCODING 88
SWIDTH 781 0
DWIDTH 31 0
BBX 29 27 1 0
BITMAP
7E0001F8
3F0003F0
1F8007E0
0FC007C0
07C00FC0
03E01F80
03F03F00
01F87E00
00FCFC00
007FF800
003FF000
001FE000
001FE000
001FC000
003FE000
003FF000
007FF800
00FCF800
01F87C00
03F07E00
07E03F00
0FC01F80
0F800FC0
1F8007E0
3F0003E0
7E0003F0
FC0001F8
ENDCHAR
STARTCHAR Y
ENCODING 89
SWIDTH 689 0
DWIDTH 28 0
BBX 26 27 1 0
BITMAP
FC000FC0
7C001F80
7E001F00
3F003F00
1F007E00
1F807C00
0F80F800
07C1F800
03E1F000
03E3E000
01F7E000
00FFC000
00FF8000
007F0000
003F0000
003E0000
003E0000
003E0000
003E0000
003E0000
003E0000
003E0000
003E0000
003E0000
003E0000
003E0000
003E0000
ENDCHAR
STARTCHAR Z
ENCODING 90
SWIDTH 743 0
DWIDTH 30 0
BBX 25 27 2 0
BITMAP
7FFFFC00
7FFFFF00
7FFFFF80
7FFFFF80
7FFFFF80
00000F80
00000780
00000F80
00001F80
00007F80
0001FF00
000FFE00
003FF800
00FFC000
07FF0000
1FFC0000
3FE00000
7F800000
7E000000
F8000000
F8000000
F8000000
FFFFFF80
7FFFFF80
7FFFFF80
3FFFFF80
0FFFFF80
ENDCHAR
STARTCHAR a
ENCODING 97
SWIDTH 672 0
DWIDTH 27 0
BBX 21 21 3 0
BITMAP
7FFF80
7FFFE0
7FFFF0
7FFFF0
0000F8
0000F8
000078
000078
03FFF8
3FFFF8
7FFFF8
FFFFF8
F80078
F00078
F00078
F00078
F80078
FFFFF8
7FFFF8
7FFFF0
1FFFE0
ENDCHAR
STARTCHAR b
ENCODING 98
SWIDTH 695 0
DWIDTH 28 0
BBX 23 30 3 0
BITMAP
F00000
F00000
F00000
F00000
F00000
F00000
F00000
F00000
F00000
FFFF80
FFFFE0
FFFFF0
FFFFF8
F000FC
F0007C
F0003C
F0003E
F0003E
F0003E
F0003E
F0003E
F0003E
F0003E
F8003C
F8007C
7E00FC
7FFFF8
3FFFF0
1FFFE0
07FF80
ENDCHAR
STARTCHAR c
ENCODING 99
SWIDTH 602 0
DWIDTH 24 0
BBX 20 21 2 0
BITMAP
07FFF0
0FFFF0
3FFFF0
3FFFF0
7E0000
7C0000
F80000
F80000
F00000
F00000
F00000
F00000
F00000
F80000
F80000
7C0000
7E0000
3FFFF0
1FFFF0
0FFFF0
03FFF0
ENDCHAR
STARTCHAR d
ENCODING 100
SWIDTH 695 0
DWIDTH 28 0
BBX 23 30 2 0
BITMAP
00001E
00001E
00001E
00001E
00001E
00001E
00001E
00001E
00001E
07FFFE
0FFFFE
3FFFFE
3FFFFE
7E001E
7C001E
F8001E
F8001E
F0001E
F0001E
F0001E
F0001E
F0003E
F8003E
F8003E
7C003C
7E00FC
3FFFFC
1FFFF8
0FFFF0
03FFC0
ENDCHAR
STARTCHAR e
ENCODING 101
SWIDTH 652 0
DWIDTH 26 0
BBX 21 21 3 0
BITMAP
1FFFC0
3FFFE0
7FFFF0
FFFFF0
F800F8
F00078
F00078
F00078
F000F8
FFFFF0
FFFFF0
FFFFC0
F00000
F00000
F00000
F00000
F80000
FFFFF0
7FFFF0
3FFFF0
0FFFF0
ENDCHAR
STARTCHAR f
ENCODING 102
SWIDTH 375 0
DWIDTH 15 0
BBX 13 30 1 0
BITMAP
07F8
0FF8
1FF8
1FF8
1F00
1E00
1E00
1E00
1E00
FFF8
FFF8
FFF8
FFF8
1E00
1E00
1E00
1E00
1E00
1E00
1E00
1E00
1E00
1E00
1E00
1E00
1E00
1E00
1E00
1E00
1E00
ENDCHAR
STARTCHAR g
ENCODING 103
SWIDTH 692 0
DWIDTH 28 0
BBX 23 29 2 -8
BITMAP
07FFE0
1FFFF0
3FFFF8
3FFFFC
7E00FC
7C003C
F8003E
F8003E
F0003E
F0001E
F0001E
F0001E
F8001E
F8001E
78001E
7C001E
3FFFFE
3FFFFE
1FFFFE
07FFFE
00001E
00003E
00003E
00003E
00007C
3FFFFC
3FFFFC
3FFFF8
3FFFF0
ENDCHAR
STARTCHAR h
ENCODING 104
SWIDTH 707 0
DWIDTH 28 0
BBX 22 30 3 0
BITMAP
F00000
F00000
F00000
F00000
F00000
F00000
F00000
F00000
F00000
FFFF00
FFFFE0
FFFFF0
FFFFF8
F001F8
F0007C
F0007C
F0003C
F0003C
F0003C
F0003C
F0003C
F0003C
F0003C
F0003C
F0003C
F0003C
F0003C
F0003C
F0003C
F0003C
ENDCHAR
STARTCHAR i
ENCODING 105
SWIDTH 258 0
DWIDTH 10 0
BBX 4 29 3 0
BITMAP
F0
F0
F0
F0
F0
00
00
00
F0
F0
F0
F0
F0
F0
F0
F0
F0
F0
F0
F0
F0
F0
F0
F0
F0
F0
F0
F0
F0
ENDCHAR
STARTCHAR j
ENCODING 106
SWIDTH 270 0
DWIDTH 11 0
BBX 10 37 -2 -8
BITMAP
07C0
07C0
07C0
07C0
07C0
0000
0000
0000
07C0
07C0
07C0
07C0
07C0
07C0
07C0
07C0
07C0
07C0
07C0
07C0
07C0
07C0
07C0
07C0
07C0
07C0
07C0
07C0
07C0
07C0
07C0
07C0
07C0
FF80
FF80
FF80
FF00
ENDCHAR
STARTCHAR k
ENCODING 107
SWIDTH 602 0
DWIDTH 24 0
BBX 20 30 3 0
BITMAP
F00000
F00000
F00000
F00000
F00000
F00000
F00000
F00000
F00000
F001E0
F003E0
F003C0
F007C0
F00F80
F00F80
F01F00
F01E00
F0FE00
FFFC00
FFF800
FFFC00
F07E00
F01F00
F00F80
F00F80
F007C0
F003C0
F003E0
F001E0
F001F0
ENDCHAR
STARTCHAR l
ENCODING 108
SWIDTH 258 0
DWIDTH 10 0
BBX 4 30 3 0
BITMAP
F0
F0
F0
F0
F0
F0
F0
F0
F0
F0
F0
F0
F0
F0
F0
F0
F0
F0
F0
F0
F0
F0
F0
F0
F0
F0
F0
F0
F0
F0
ENDCHAR
STARTCHAR m
ENCODING 109
SWIDTH 1032 0
DWIDTH 41 0
BBX 35 21 3 0
BITMAP
7FFFFFF800
FFFFFFFF00
FFFFFFFF80
FFFFFFFFC0
F000F00FC0
F000F003E0
F000F001E0
F000F001E0
F000F001E0
F000F001E0
F000F001E0
F000F001E0
F000F001E0
F000F001E0
F000F001E0
F000F001E0
F000F001E0
F000F001E0
F000F001E0
F000F001E0
F000F001E0
ENDCHAR
STARTCHAR n
ENCODING 110
SWIDTH 707 0
DWIDTH 28 0
BBX 22 21 3 0
BITMAP
7FFF00
FFFFE0
FFFFF0
FFFFF8
F001F8
F0007C
F0007C
F0003C
F0003C
F0003C
F0003C
F0003C
F0003C
F0003C
F0003C
F0003C
F0003C
F0003C
F0003C
F0003C
F0003C
ENDCHAR
STARTCHAR o
ENCODING 111
SWIDTH 671 0
DWIDTH 27 0
BBX 23 21 2 0
BITMAP
07FF80
0FFFE0
3FFFF0
3FFFF8
7E00FC
7C007C
F8003C
F8003E
F0003E
F0003E
F0003E
F0003E
F0003E
F8003E
F8003C
7C007C
7E00FC
3FFFF8
1FFFF0
0FFFE0
03FF80
ENDCHAR
STARTCHAR p
ENCODING 112
SWIDTH 693 0
DWIDTH 28 0
BBX 23 29 3 -8
BITMAP
0FFF80
1FFFE0
3FFFF0
7FFFF8
7C00FC
F8007C
F8003C
F0003C
F0003E
F0003E
F0003E
F0003E
F0003E
F0003C
F0003C
F0007C
F001FC
FFFFF8
FFFFF0
FFFFE0
FFFF80
F00000
F00000
F00000
F00000
F00000
F00000
F00000
F00000
ENDCHAR
STARTCHAR q
ENCODING 113
SWIDTH 693 0
DWIDTH 28 0
BBX 23 29 2 -8
BITMAP
07FFE0
0FFFF0
3FFFF8
3FFFFC
7E00FC
7C003C
F8003E
F8003E
F0003E
F0001E
F0001E
F0001E
F0001E
F8001E
F8001E
7C001E
7E001E
3FFFFE
1FFFFE
0FFFFE
03FFFE
00001E
00001E
00001E
00001E
00001E
00001E
00001E
00001E
ENDCHAR
STARTCHAR r
ENCODING 114
SWIDTH 463 0
DWIDTH 19 0
BBX 14 21 3 0
BITMAP
3FFC
7FFC
7FFC
FFFC
F800
F000
F000
F000
F000
F000
F000
F000
F000
F000
F000
F000
F000
F000
F000
F000
F000
ENDCHAR
STARTCHAR s
ENCODING 115
SWIDTH 586 0
DWIDTH 23 0
BBX 19 21 2 0
BITMAP
1FFFE0
3FFFE0
7FFFE0
FFFFE0
F80000
F00000
F00000
F00000
FC0000
7FFF80
3FFFC0
1FFFE0
0003E0
0001E0
0001E0
0001E0
0003E0
FFFFE0
FFFFC0
FFFFC0
FFFF00
ENDCHAR
STARTCHAR t
ENCODING 116
SWIDTH 375 0
DWIDTH 15 0
BBX 13 26 1 0
BITMAP
1E00
1E00
1E00
1E00
1E00
FFF8
FFF8
FFF8
FFF8
1E00
1E00
1E00
1E00
1E00
1E00
1E00
1E00
1E00
1E00
1E00
1E00
1F00
1FF8
0FF8
0FF8
03F8
ENDCHAR
STARTCHAR u
ENCODING 117
SWIDTH 702 0
DWIDTH 28 0
BBX 22 21 3 0
BITMAP
F0003C
F0003C
F0003C
F0003C
F0003C
F0003C
F0003C
F0003C
F0003C
F0003C
F0003C
F0003C
F0003C
F0003C
F8003C
F8007C
7E01F8
7FFFF8
3FFFF0
1FFFE0
07FF80
ENDCHAR
STARTCHAR v
ENCODING 118
SWIDTH 677 0
DWIDTH 27 0
BBX 25 21 1 0
BITMAP
F8000F80
F8000F80
78000F00
7C001F00
3C001E00
3E003E00
3E003C00
1E007C00
1F007C00
0F007800
0F80F800
0780F000
0781F000
07C1E000
03C3E000
03E3E000
01E3C000
01FFC000
01FF8000
00FF8000
007F0000
ENDCHAR
STARTCHAR w
ENCODING 119
SWIDTH 977 0
DWIDTH 39 0
BBX 37 22 1 0
BITMAP
0000200000
F801FC00F8
F803FE00F8
7807FF00F8
78078F00F0
78078F00F0
780F8F80F0
7C0F0781F0
7C0F0781F0
7C0F0781F0
7C1F0781F0
3C1F07C1E0
3C1E03C1E0
3C1E03C1E0
3C3E03C3E0
3C3E03E3E0
3E3C01E3E0
3E3C01E3E0
1E7C01F7C0
1FF801FFC0
1FF800FF80
0FF0007F00
ENDCHAR
STARTCHAR x
ENCODING 120
SWIDTH 681 0
DWIDTH 27 0
BBX 25 21 1 0
BITMAP
7C001F80
3E001F00
1F003E00
0F807C00
07C0F800
03E1F000
01F3E000
00FFC000
007F8000
003F0000
003F0000
007F0000
00FF8000
01F7C000
03E3E000
07C1F000
0F80F800
1F007C00
3E003E00
7C001F00
FC000F80
ENDCHAR
STARTCHAR y
ENCODING 121
SWIDTH 647 0
DWIDTH 26 0
BBX 24 29 1 -8
BITMAP
F0001F
F8001E
78003E
7C003E
3C003C
3E007C
3E0078
1E00F8
1F00F0
0F01F0
0F81F0
0F81E0
0783E0
07C3C0
03C7C0
03E780
03FF80
01FF80
01FF00
00FF00
001E00
003E00
003C00
007C00
007C00
007800
00F800
00F000
01F000
ENDCHAR
STARTCHAR z
ENCODING 122
SWIDTH 624 0
DWIDTH 25 0
BBX 21 21 2 0
BITMAP
7FFFE0
7FFFF0
7FFFF8
7FFFF8
000078
000078
0000F8
0003F0
001FE0
00FFC0
07FE00
1FF800
7FC000
7E0000
F80000
F00000
F00000
FFFFF8
7FFFF8
7FFFF8
1FFFF8
ENDCHAR
STARTCHAR uni00A0
ENCODING 160
SWIDTH 267 0
DWIDTH 11 0
BBX 1 1 0 0
BITMAP
00
ENDCHAR
STARTCHAR ordmasculine
ENCODING 186
SWIDTH 479 0
DWIDTH 19 0
BBX 15 14 2 13
BITMAP
1FF0
3FF8
7FFC
701C
E00E
E00E
E00E
E00E
E00E
E00E
F01E
7C3C
7FFC
1FF8
ENDCHAR
ENDFONT
